<mxfile host="Electron" agent="Mozilla/5.0 (Windows NT 10.0; Win64; x64) AppleWebKit/537.36 (KHTML, like Gecko) draw.io/26.0.4 Chrome/128.0.6613.186 Electron/32.2.5 Safari/537.36" version="26.0.4">
  <diagram name="Page-1" id="yKWgAob8RB1Kz7icvjJE">
    <mxGraphModel dx="2069" dy="1869" grid="1" gridSize="10" guides="1" tooltips="1" connect="1" arrows="1" fold="1" page="1" pageScale="1" pageWidth="850" pageHeight="1100" math="0" shadow="0">
      <root>
        <mxCell id="0" />
        <mxCell id="1" parent="0" />
        <mxCell id="dfG8Hvtz1Eu-EkQ2TVE1-1" value="datphong" style="rounded=0;whiteSpace=wrap;html=1;" parent="1" vertex="1">
          <mxGeometry x="365" y="330" width="120" height="60" as="geometry" />
        </mxCell>
        <mxCell id="dfG8Hvtz1Eu-EkQ2TVE1-2" value="phong" style="rounded=0;whiteSpace=wrap;html=1;" parent="1" vertex="1">
          <mxGeometry x="570" y="130" width="120" height="60" as="geometry" />
        </mxCell>
        <mxCell id="dfG8Hvtz1Eu-EkQ2TVE1-3" value="khachhang" style="rounded=0;whiteSpace=wrap;html=1;" parent="1" vertex="1">
          <mxGeometry x="170" y="140" width="120" height="60" as="geometry" />
        </mxCell>
        <mxCell id="dfG8Hvtz1Eu-EkQ2TVE1-4" value="&lt;u&gt;makhachhang&lt;/u&gt;" style="ellipse;whiteSpace=wrap;html=1;" parent="1" vertex="1">
          <mxGeometry x="185" y="20" width="90" height="50" as="geometry" />
        </mxCell>
        <mxCell id="dfG8Hvtz1Eu-EkQ2TVE1-5" value="&lt;u&gt;maphong&lt;/u&gt;" style="ellipse;whiteSpace=wrap;html=1;" parent="1" vertex="1">
          <mxGeometry x="600" y="40" width="90" height="50" as="geometry" />
        </mxCell>
        <mxCell id="dfG8Hvtz1Eu-EkQ2TVE1-8" value="&lt;u&gt;madatphong&lt;/u&gt;" style="ellipse;whiteSpace=wrap;html=1;" parent="1" vertex="1">
          <mxGeometry x="210" y="340" width="90" height="50" as="geometry" />
        </mxCell>
        <mxCell id="dfG8Hvtz1Eu-EkQ2TVE1-9" value="giaphong" style="ellipse;whiteSpace=wrap;html=1;" parent="1" vertex="1">
          <mxGeometry x="630" y="240" width="90" height="50" as="geometry" />
        </mxCell>
        <mxCell id="dfG8Hvtz1Eu-EkQ2TVE1-10" value="loaiphong" style="ellipse;whiteSpace=wrap;html=1;" parent="1" vertex="1">
          <mxGeometry x="730" y="145" width="90" height="50" as="geometry" />
        </mxCell>
        <mxCell id="dfG8Hvtz1Eu-EkQ2TVE1-11" value="maphong" style="ellipse;whiteSpace=wrap;html=1;" parent="1" vertex="1">
          <mxGeometry x="455" y="450" width="90" height="50" as="geometry" />
        </mxCell>
        <mxCell id="dfG8Hvtz1Eu-EkQ2TVE1-12" value="madatphong" style="ellipse;whiteSpace=wrap;html=1;" parent="1" vertex="1">
          <mxGeometry x="275" y="430" width="110" height="60" as="geometry" />
        </mxCell>
        <mxCell id="dfG8Hvtz1Eu-EkQ2TVE1-13" value="" style="endArrow=none;html=1;rounded=0;entryX=0.5;entryY=1;entryDx=0;entryDy=0;exitX=0.5;exitY=0;exitDx=0;exitDy=0;" parent="1" source="dfG8Hvtz1Eu-EkQ2TVE1-3" target="dfG8Hvtz1Eu-EkQ2TVE1-4" edge="1">
          <mxGeometry width="50" height="50" relative="1" as="geometry">
            <mxPoint x="400" y="340" as="sourcePoint" />
            <mxPoint x="450" y="290" as="targetPoint" />
          </mxGeometry>
        </mxCell>
        <mxCell id="dfG8Hvtz1Eu-EkQ2TVE1-14" value="" style="endArrow=none;html=1;rounded=0;exitX=1;exitY=1;exitDx=0;exitDy=0;entryX=0;entryY=0.25;entryDx=0;entryDy=0;" parent="1" target="dfG8Hvtz1Eu-EkQ2TVE1-3" edge="1">
          <mxGeometry width="50" height="50" relative="1" as="geometry">
            <mxPoint x="96.81980515339478" y="142.67766952966372" as="sourcePoint" />
            <mxPoint x="450" y="290" as="targetPoint" />
          </mxGeometry>
        </mxCell>
        <mxCell id="dfG8Hvtz1Eu-EkQ2TVE1-16" value="hoten" style="ellipse;whiteSpace=wrap;html=1;" parent="1" vertex="1">
          <mxGeometry x="25" y="10" width="90" height="50" as="geometry" />
        </mxCell>
        <mxCell id="dfG8Hvtz1Eu-EkQ2TVE1-17" value="" style="endArrow=none;html=1;rounded=0;exitX=1;exitY=0.5;exitDx=0;exitDy=0;entryX=0.25;entryY=0;entryDx=0;entryDy=0;" parent="1" source="dfG8Hvtz1Eu-EkQ2TVE1-16" target="dfG8Hvtz1Eu-EkQ2TVE1-3" edge="1">
          <mxGeometry width="50" height="50" relative="1" as="geometry">
            <mxPoint x="355" y="140" as="sourcePoint" />
            <mxPoint x="185" as="targetPoint" />
          </mxGeometry>
        </mxCell>
        <mxCell id="dfG8Hvtz1Eu-EkQ2TVE1-18" value="" style="endArrow=none;html=1;rounded=0;entryX=0.36;entryY=0.984;entryDx=0;entryDy=0;entryPerimeter=0;exitX=0.5;exitY=0;exitDx=0;exitDy=0;" parent="1" source="dfG8Hvtz1Eu-EkQ2TVE1-2" target="dfG8Hvtz1Eu-EkQ2TVE1-5" edge="1">
          <mxGeometry width="50" height="50" relative="1" as="geometry">
            <mxPoint x="400" y="210" as="sourcePoint" />
            <mxPoint x="450" y="160" as="targetPoint" />
          </mxGeometry>
        </mxCell>
        <mxCell id="dfG8Hvtz1Eu-EkQ2TVE1-19" value="" style="endArrow=none;html=1;rounded=0;entryX=0;entryY=0.5;entryDx=0;entryDy=0;exitX=1;exitY=0.5;exitDx=0;exitDy=0;" parent="1" source="dfG8Hvtz1Eu-EkQ2TVE1-2" target="dfG8Hvtz1Eu-EkQ2TVE1-10" edge="1">
          <mxGeometry width="50" height="50" relative="1" as="geometry">
            <mxPoint x="400" y="210" as="sourcePoint" />
            <mxPoint x="450" y="160" as="targetPoint" />
          </mxGeometry>
        </mxCell>
        <mxCell id="dfG8Hvtz1Eu-EkQ2TVE1-20" value="" style="endArrow=none;html=1;rounded=0;exitX=0.071;exitY=0.232;exitDx=0;exitDy=0;exitPerimeter=0;entryX=0.363;entryY=1.007;entryDx=0;entryDy=0;entryPerimeter=0;" parent="1" source="dfG8Hvtz1Eu-EkQ2TVE1-9" target="dfG8Hvtz1Eu-EkQ2TVE1-2" edge="1">
          <mxGeometry width="50" height="50" relative="1" as="geometry">
            <mxPoint x="400" y="210" as="sourcePoint" />
            <mxPoint x="450" y="160" as="targetPoint" />
          </mxGeometry>
        </mxCell>
        <mxCell id="dfG8Hvtz1Eu-EkQ2TVE1-21" value="" style="endArrow=none;html=1;rounded=0;exitX=1;exitY=0.5;exitDx=0;exitDy=0;entryX=0;entryY=0.25;entryDx=0;entryDy=0;" parent="1" source="dfG8Hvtz1Eu-EkQ2TVE1-8" target="dfG8Hvtz1Eu-EkQ2TVE1-1" edge="1">
          <mxGeometry width="50" height="50" relative="1" as="geometry">
            <mxPoint x="400" y="340" as="sourcePoint" />
            <mxPoint x="450" y="290" as="targetPoint" />
          </mxGeometry>
        </mxCell>
        <mxCell id="dfG8Hvtz1Eu-EkQ2TVE1-22" value="" style="endArrow=none;html=1;rounded=0;exitX=0.5;exitY=1;exitDx=0;exitDy=0;entryX=0.436;entryY=0;entryDx=0;entryDy=0;entryPerimeter=0;" parent="1" source="dfG8Hvtz1Eu-EkQ2TVE1-1" target="dfG8Hvtz1Eu-EkQ2TVE1-12" edge="1">
          <mxGeometry width="50" height="50" relative="1" as="geometry">
            <mxPoint x="400" y="340" as="sourcePoint" />
            <mxPoint x="450" y="290" as="targetPoint" />
          </mxGeometry>
        </mxCell>
        <mxCell id="dfG8Hvtz1Eu-EkQ2TVE1-23" value="" style="endArrow=none;html=1;rounded=0;entryX=0.75;entryY=1;entryDx=0;entryDy=0;exitX=0.031;exitY=0.336;exitDx=0;exitDy=0;exitPerimeter=0;" parent="1" source="dfG8Hvtz1Eu-EkQ2TVE1-11" target="dfG8Hvtz1Eu-EkQ2TVE1-1" edge="1">
          <mxGeometry width="50" height="50" relative="1" as="geometry">
            <mxPoint x="400" y="340" as="sourcePoint" />
            <mxPoint x="450" y="290" as="targetPoint" />
          </mxGeometry>
        </mxCell>
        <mxCell id="dfG8Hvtz1Eu-EkQ2TVE1-39" style="edgeStyle=orthogonalEdgeStyle;rounded=0;orthogonalLoop=1;jettySize=auto;html=1;exitX=1;exitY=0;exitDx=0;exitDy=0;entryX=0;entryY=0;entryDx=0;entryDy=0;" parent="1" source="dfG8Hvtz1Eu-EkQ2TVE1-24" target="dfG8Hvtz1Eu-EkQ2TVE1-1" edge="1">
          <mxGeometry relative="1" as="geometry">
            <Array as="points">
              <mxPoint x="349" y="290" />
              <mxPoint x="365" y="290" />
            </Array>
          </mxGeometry>
        </mxCell>
        <mxCell id="dfG8Hvtz1Eu-EkQ2TVE1-41" value="n" style="edgeLabel;html=1;align=center;verticalAlign=middle;resizable=0;points=[];" parent="dfG8Hvtz1Eu-EkQ2TVE1-39" vertex="1" connectable="0">
          <mxGeometry x="0.2271" y="1" relative="1" as="geometry">
            <mxPoint as="offset" />
          </mxGeometry>
        </mxCell>
        <mxCell id="dfG8Hvtz1Eu-EkQ2TVE1-24" value="có" style="rhombus;whiteSpace=wrap;html=1;direction=south;" parent="1" vertex="1">
          <mxGeometry x="300" y="225" width="65" height="65" as="geometry" />
        </mxCell>
        <mxCell id="dfG8Hvtz1Eu-EkQ2TVE1-45" style="edgeStyle=orthogonalEdgeStyle;rounded=0;orthogonalLoop=1;jettySize=auto;html=1;exitX=0;exitY=0;exitDx=0;exitDy=0;entryX=0;entryY=0.75;entryDx=0;entryDy=0;" parent="1" source="dfG8Hvtz1Eu-EkQ2TVE1-25" target="dfG8Hvtz1Eu-EkQ2TVE1-2" edge="1">
          <mxGeometry relative="1" as="geometry" />
        </mxCell>
        <mxCell id="dfG8Hvtz1Eu-EkQ2TVE1-46" value="n" style="edgeLabel;html=1;align=center;verticalAlign=middle;resizable=0;points=[];" parent="dfG8Hvtz1Eu-EkQ2TVE1-45" vertex="1" connectable="0">
          <mxGeometry x="-0.1981" y="-1" relative="1" as="geometry">
            <mxPoint as="offset" />
          </mxGeometry>
        </mxCell>
        <mxCell id="dfG8Hvtz1Eu-EkQ2TVE1-25" value="có" style="rhombus;whiteSpace=wrap;html=1;direction=south;" parent="1" vertex="1">
          <mxGeometry x="480" y="225" width="65" height="65" as="geometry" />
        </mxCell>
        <mxCell id="dfG8Hvtz1Eu-EkQ2TVE1-26" value="" style="endArrow=none;html=1;rounded=0;exitX=1;exitY=1;exitDx=0;exitDy=0;entryX=0;entryY=1;entryDx=0;entryDy=0;" parent="1" source="dfG8Hvtz1Eu-EkQ2TVE1-3" target="dfG8Hvtz1Eu-EkQ2TVE1-24" edge="1">
          <mxGeometry width="50" height="50" relative="1" as="geometry">
            <mxPoint x="400" y="340" as="sourcePoint" />
            <mxPoint x="306.25" y="241.25" as="targetPoint" />
          </mxGeometry>
        </mxCell>
        <mxCell id="dfG8Hvtz1Eu-EkQ2TVE1-40" value="1" style="edgeLabel;html=1;align=center;verticalAlign=middle;resizable=0;points=[];" parent="dfG8Hvtz1Eu-EkQ2TVE1-26" vertex="1" connectable="0">
          <mxGeometry x="-0.392" y="3" relative="1" as="geometry">
            <mxPoint as="offset" />
          </mxGeometry>
        </mxCell>
        <mxCell id="dfG8Hvtz1Eu-EkQ2TVE1-28" value="1" style="endArrow=none;html=1;rounded=0;exitX=0.75;exitY=0;exitDx=0;exitDy=0;entryX=1;entryY=1;entryDx=0;entryDy=0;" parent="1" source="dfG8Hvtz1Eu-EkQ2TVE1-1" target="dfG8Hvtz1Eu-EkQ2TVE1-25" edge="1">
          <mxGeometry width="50" height="50" relative="1" as="geometry">
            <mxPoint x="400" y="340" as="sourcePoint" />
            <mxPoint x="450" y="290" as="targetPoint" />
          </mxGeometry>
        </mxCell>
        <mxCell id="dfG8Hvtz1Eu-EkQ2TVE1-34" value="sodienthoai" style="ellipse;whiteSpace=wrap;html=1;" parent="1" vertex="1">
          <mxGeometry x="-10" y="110" width="110" height="60" as="geometry" />
        </mxCell>
        <mxCell id="dfG8Hvtz1Eu-EkQ2TVE1-35" value="ngaydat" style="ellipse;whiteSpace=wrap;html=1;" parent="1" vertex="1">
          <mxGeometry x="522.5" y="400" width="90" height="50" as="geometry" />
        </mxCell>
        <mxCell id="dfG8Hvtz1Eu-EkQ2TVE1-36" value="" style="endArrow=none;html=1;rounded=0;entryX=1;entryY=1;entryDx=0;entryDy=0;exitX=0.031;exitY=0.336;exitDx=0;exitDy=0;exitPerimeter=0;" parent="1" source="dfG8Hvtz1Eu-EkQ2TVE1-35" target="dfG8Hvtz1Eu-EkQ2TVE1-1" edge="1">
          <mxGeometry width="50" height="50" relative="1" as="geometry">
            <mxPoint x="410" y="350" as="sourcePoint" />
            <mxPoint x="465" y="400" as="targetPoint" />
          </mxGeometry>
        </mxCell>
        <mxCell id="dfG8Hvtz1Eu-EkQ2TVE1-37" value="ngaytra" style="ellipse;whiteSpace=wrap;html=1;" parent="1" vertex="1">
          <mxGeometry x="630" y="365" width="90" height="50" as="geometry" />
        </mxCell>
        <mxCell id="dfG8Hvtz1Eu-EkQ2TVE1-38" value="" style="endArrow=none;html=1;rounded=0;entryX=0.998;entryY=0.12;entryDx=0;entryDy=0;exitX=0.031;exitY=0.336;exitDx=0;exitDy=0;exitPerimeter=0;entryPerimeter=0;" parent="1" source="dfG8Hvtz1Eu-EkQ2TVE1-37" target="dfG8Hvtz1Eu-EkQ2TVE1-1" edge="1">
          <mxGeometry width="50" height="50" relative="1" as="geometry">
            <mxPoint x="575" y="255" as="sourcePoint" />
            <mxPoint x="630" y="305" as="targetPoint" />
          </mxGeometry>
        </mxCell>
        <mxCell id="dfG8Hvtz1Eu-EkQ2TVE1-44" value="có làm thay đổi mô hình&amp;nbsp;" style="text;html=1;align=center;verticalAlign=middle;resizable=0;points=[];autosize=1;strokeColor=none;fillColor=none;" parent="1" vertex="1">
          <mxGeometry x="20" y="-90" width="150" height="30" as="geometry" />
        </mxCell>
      </root>
    </mxGraphModel>
  </diagram>
</mxfile>
